<svg width="16" height="16" viewBox="0 0 16 16" fill="none" xmlns="http://www.w3.org/2000/svg">
<path d="M10.586 1C12.268 1 13.5 2.37 13.5 4.25C13.5 5.995 12.504 7.609 10.878 9.081C10.712 9.231 10.542 9.378 10.369 9.519L11.485 15.103C11.511 15.2334 11.5019 15.3684 11.4586 15.4942C11.4153 15.6199 11.3393 15.7319 11.2385 15.8186C11.1376 15.9053 11.0155 15.9636 10.8847 15.9876C10.7539 16.0116 10.619 16.0003 10.494 15.955L8.085 15.079C8.03007 15.0591 7.96993 15.0591 7.915 15.079L5.506 15.955C5.38096 16.0003 5.24612 16.0116 5.1153 15.9876C4.98448 15.9636 4.86239 15.9053 4.76154 15.8186C4.66069 15.7319 4.5847 15.6199 4.54138 15.4942C4.49806 15.3684 4.48896 15.2334 4.515 15.103L5.63 9.519C5.45646 9.37717 5.28641 9.23113 5.12 9.081C3.497 7.609 2.5 5.995 2.5 4.25C2.5 2.37 3.732 1 5.414 1C6.377 1 7.257 1.403 7.888 2.073L8 2.198L8.112 2.073C8.70715 1.43639 9.52489 1.05384 10.395 1.005L10.586 1ZM6.965 10.495L6.247 14.089L7.402 13.669C7.73181 13.5493 8.08997 13.5316 8.43 13.618L8.598 13.669L9.752 14.089L9.034 10.497C8.835 10.627 8.664 10.732 8.529 10.811L8.36 10.908C8.24962 10.9684 8.12582 11 8 11C7.87418 11 7.75038 10.9684 7.64 10.908C7.46515 10.8108 7.29339 10.708 7.125 10.6L6.965 10.495ZM10.586 2.5C9.723 2.5 8.975 3.08 8.72 3.959C8.511 4.68 7.489 4.68 7.28 3.959C7.025 3.08 6.277 2.5 5.414 2.5C4.598 2.5 4 3.165 4 4.25C4 5.48 4.786 6.754 6.128 7.969C6.618 8.412 7.146 8.815 7.674 9.167L7.999 9.377L8.075 9.33L8.326 9.167C8.86995 8.80603 9.38667 8.40562 9.872 7.969C11.214 6.754 12 5.479 12 4.25C12 3.165 11.402 2.5 10.586 2.5Z" fill="white"/>
</svg>
